<svg width="47" height="48" viewBox="0 0 47 48" fill="none" xmlns="http://www.w3.org/2000/svg">
<path d="M46.9728 36.2327C46.9858 36.1889 46.9946 36.1444 47 36.099V11.3924C46.9979 11.2806 46.9758 11.1696 46.9344 11.0658C46.9231 11.0364 46.9097 11.0078 46.8951 10.98C46.8587 10.9052 46.8127 10.8359 46.7576 10.7737C46.7396 10.7539 46.725 10.7312 46.7053 10.7123V10.7127C46.6322 10.6408 46.5482 10.582 46.4562 10.5375L23.8914 0.087001C23.6432 -0.0290003 23.3568 -0.0290003 23.1086 0.087001L0.543794 10.5375C0.451837 10.582 0.367828 10.6408 0.294681 10.7127C0.275036 10.7316 0.259988 10.7543 0.242433 10.7741V10.7737C0.18726 10.8359 0.141282 10.9052 0.104913 10.98C0.0902835 11.0078 0.0769085 11.0364 0.0656229 11.0658C0.0242427 11.1696 0.00208977 11.2806 0 11.3924V36.099C0.00543371 36.1444 0.0142107 36.1889 0.0271687 36.2327C0.0330204 36.3045 0.0472319 36.3751 0.0693847 36.4436C0.0952997 36.4979 0.126648 36.5491 0.163012 36.5971C0.191434 36.65 0.224873 36.7005 0.262909 36.7467C0.315575 36.7954 0.373678 36.8383 0.436371 36.874C0.470228 36.903 0.506592 36.9299 0.544626 36.9539L23.1094 47.4043H23.1228C23.3627 47.5149 23.639 47.5149 23.8793 47.4043H23.8923L46.457 36.9539C46.4951 36.9299 46.5314 36.903 46.5657 36.874C46.628 36.8383 46.6861 36.7954 46.7388 36.7467C46.7772 36.7005 46.8106 36.65 46.8391 36.5971C46.875 36.5491 46.9068 36.4979 46.9327 36.4436C46.954 36.3751 46.9674 36.3041 46.9728 36.2327H46.9728ZM1.87433 12.8635L9.05272 16.1877V23.6624C9.05272 24.0298 9.26589 24.3635 9.59777 24.5173L14.2791 26.6827C14.5688 26.8168 14.907 26.7933 15.1757 26.6197C15.4445 26.4465 15.6071 26.1477 15.6066 25.8266V19.2269L22.566 22.4439V45.0761L1.87379 35.4956L1.87433 12.8635ZM34.812 7.22673L14.6408 16.6848L12.2149 15.5617L32.3871 6.10362L34.812 7.22673ZM10.9278 17.0547L13.7367 18.3547V24.3579L10.9278 23.0588V17.0547ZM24.438 22.4439L45.1302 12.8635V35.4956L24.438 45.076V22.4439ZM23.5017 20.8039L16.8542 17.726L37.0488 8.25568L43.8256 11.3928L23.5017 20.8039ZM23.5017 1.98283L30.1651 5.06788L9.97048 14.5387L3.17794 11.3931L23.5017 1.98283ZM14.3898 34.8863C14.4939 34.6593 14.6832 34.4832 14.9161 34.3966C15.1493 34.31 15.4068 34.3206 15.6325 34.4248L20.3356 36.6024H20.3351C20.5659 36.7037 20.746 36.894 20.8355 37.1307C20.9249 37.3669 20.9157 37.6296 20.8108 37.8595C20.7055 38.089 20.5124 38.2663 20.2758 38.3517C20.0388 38.437 19.778 38.4227 19.5514 38.3122L14.8483 36.1346H14.8488C14.3794 35.9173 14.1741 35.3583 14.3898 34.8862V34.8863ZM20.7929 41.3893H20.7933C20.5768 41.8613 20.0213 42.0677 19.5515 41.8504L14.8484 39.6728H14.8488C14.379 39.4538 14.1746 38.8936 14.3924 38.4211C14.6102 37.9487 15.1673 37.7432 15.6372 37.9621L20.3403 40.1397C20.808 40.3595 21.0107 40.9181 20.7934 41.3892L20.7929 41.3893ZM43.8306 31.1128C43.4678 31.4831 42.8751 31.4877 42.5069 31.1233L42.2803 30.9002V34.3382C42.2803 34.8581 41.8611 35.2797 41.344 35.2797C40.827 35.2797 40.4078 34.8581 40.4078 34.3382V31.6079L40.1043 32.0383C39.8017 32.4511 39.2265 32.5444 38.8102 32.2485C38.3939 31.9526 38.2894 31.3763 38.5753 30.9518L40.5791 28.1084C40.595 28.0866 40.6176 28.0765 40.6343 28.0567C40.651 28.037 40.6577 28.0113 40.6757 27.9928H40.6753C40.7054 27.9689 40.7367 27.9466 40.7689 27.926C40.8145 27.8899 40.863 27.8583 40.9144 27.8319C40.9369 27.8205 40.9537 27.8008 40.9779 27.7903C41.0022 27.7797 41.0465 27.7789 41.0799 27.7684V27.7688C41.1384 27.7507 41.1986 27.7386 41.2596 27.7318C41.2847 27.7318 41.3081 27.7188 41.3336 27.7175H41.3382V27.718C41.37 27.7226 41.4013 27.7293 41.4318 27.7377C41.4916 27.7423 41.5505 27.7537 41.6078 27.7705C41.6358 27.7755 41.6634 27.7823 41.6901 27.7903C41.7248 27.8083 41.7579 27.8289 41.7896 27.8516C41.8185 27.8684 41.8515 27.8722 41.8786 27.8911C41.9058 27.91 41.9113 27.9306 41.9309 27.9475C41.9526 27.9601 41.9735 27.9739 41.9936 27.9891L41.999 27.9937L43.8185 29.7816C44.1876 30.1456 44.193 30.7416 43.8306 31.1127L43.8306 31.1128Z" fill="white"/>
</svg>
