<svg width="43" height="45" viewBox="0 0 43 45" fill="none" xmlns="http://www.w3.org/2000/svg">
<path d="M18.9433 18.2308C18.9433 20.9356 17.4541 23.1284 15.6173 23.1284C13.7803 23.1284 12.291 20.9356 12.291 18.2308C12.291 15.5258 13.7803 13.3329 15.6173 13.3329C17.4541 13.3329 18.9433 15.5258 18.9433 18.2308Z" stroke="white" stroke-width="2.01888" stroke-miterlimit="10" stroke-linecap="round"/>
<path d="M30.7036 27.001C30.7036 29.706 29.2144 31.8989 27.3773 31.8989C25.5406 31.8989 24.0513 29.706 24.0513 27.001C24.0513 24.2962 25.5406 22.1034 27.3773 22.1034C29.2144 22.1034 30.7036 24.2962 30.7036 27.001" stroke="white" stroke-width="2.01888" stroke-miterlimit="10" stroke-linecap="round"/>
<path d="M15.471 31.0967L27.2915 14.2011" stroke="white" stroke-width="2.01888" stroke-miterlimit="10" stroke-linecap="round"/>
<path d="M21.4974 2L25.2222 4.7203C26.3048 5.51189 27.6085 5.93852 28.9471 5.93852H33.55L34.9734 10.3387C35.3863 11.6192 36.1922 12.7347 37.2748 13.526L40.9996 16.2463L39.5762 20.6464L39.5766 20.6468C39.1626 21.9266 39.1626 23.3052 39.5766 24.5849L41 28.9851L37.2752 31.7054L37.2748 31.7058C36.1922 32.497 35.3863 33.6125 34.9734 34.893L33.55 39.2932H28.9421C27.6035 39.2932 26.2995 39.7198 25.2173 40.5114L21.4973 43.2317L17.7725 40.5114C16.6899 39.7198 15.3862 39.2932 14.0476 39.2932H9.44968L8.02627 34.893C7.6133 33.6125 6.80777 32.497 5.72484 31.7058L2 28.9855L3.42341 24.5853V24.5849C3.83709 23.3052 3.83709 21.9266 3.42341 20.6468L2 16.2466L5.72484 13.5263V13.526C6.80777 12.7347 7.61331 11.6192 8.02627 10.3387L9.44968 5.93852H14.0526C15.3912 5.93852 16.6952 5.51192 17.7774 4.7203L21.4974 2Z" stroke="white" stroke-width="2.01888" stroke-miterlimit="10"/>
</svg>
