<svg width="29" height="30" viewBox="0 0 29 30" fill="none" xmlns="http://www.w3.org/2000/svg">
<path d="M1.44995 22.0982V13.985C1.44995 10.7574 2.82486 7.66198 5.27221 5.37969C7.71956 3.09741 11.0389 1.81523 14.5 1.81525C17.961 1.81525 21.2803 3.09741 23.7278 5.37969C26.1751 7.66198 27.55 10.7574 27.55 13.985V22.0982M27.55 25.5902C27.55 26.2947 27.2444 26.9704 26.7005 27.4685C26.1566 27.9667 25.419 28.2466 24.65 28.2466H23.2C22.4309 28.2466 21.6933 27.9667 21.1494 27.4685C20.6055 26.9704 20.3 26.2947 20.3 25.5902V21.6057C20.3 20.9012 20.6055 20.2256 21.1494 19.7274C21.6933 19.2293 22.4309 18.9494 23.2 18.9494H27.55V25.5902ZM1.44995 25.5902C1.44995 26.2947 1.75548 26.9704 2.29935 27.4685C2.8432 27.9667 3.58083 28.2466 4.34995 28.2466H5.79995C6.56908 28.2466 7.3067 27.9667 7.85056 27.4685C8.39442 26.9704 8.69995 26.2947 8.69995 25.5902V21.6057C8.69995 20.9012 8.39442 20.2256 7.85056 19.7274C7.3067 19.2293 6.56908 18.9494 5.79995 18.9494H1.44995V25.5902Z" stroke="white" stroke-width="2" stroke-linecap="round" stroke-linejoin="round"/>
</svg>
