<svg width="36" height="44" viewBox="0 0 36 44" fill="none" xmlns="http://www.w3.org/2000/svg">
<path d="M35 18.1263C35 31.4467 18 42.8642 18 42.8642C18 42.8642 1 31.4467 1 18.1263C1 13.5841 2.79107 9.22796 5.97918 6.01616C9.1673 2.80437 13.4913 1 18 1C22.5087 1 26.8327 2.80437 30.0208 6.01616C33.2089 9.22796 35 13.5841 35 18.1263Z" stroke="white" stroke-width="2" stroke-linecap="round" stroke-linejoin="round"/>
<path d="M18.3464 24.0253C21.4122 24.0253 23.8974 21.37 23.8974 18.0946C23.8974 14.8191 21.4122 12.1638 18.3464 12.1638C15.2807 12.1638 12.7954 14.8191 12.7954 18.0946C12.7954 21.37 15.2807 24.0253 18.3464 24.0253Z" stroke="white" stroke-width="2" stroke-linecap="round" stroke-linejoin="round"/>
</svg>
